<?xml version="1.0" encoding="UTF-8"?>
<svg id="Layer_1" data-name="Layer 1" xmlns="http://www.w3.org/2000/svg" viewBox="0 0 548.31 491.34">
  <defs>
    <style>
      .cls-1 {
        fill: #25252c;
      }
    </style>
  </defs>
  <path class="cls-1" d="M312.61,396.25c-22.49-13.51-43.5-54.58,2.09-71.52,32.22-11.97,63.31-33.81,75.58-66.24,15.38-14.17,28.37-30.51,37.65-49.82-3.66-11.05-8.16-25.05-5.8-35.73,1.49-6.73,7.64-10.57,14.43-8.61,4.99,1.44,8.88,4.57,12.72,8.73,5.24-13.05,11.3-34.02,23.65-37.53,6.5-1.85,12.55,2.74,14.54,9.26,4.04-2.9,7.95-4.59,12.98-3.53,10.15,2.14,13.95,15.22,11.02,26.65,6.49-2.05,12.29,1.46,14.57,7.67,1.97,5.4,1.6,11.11.41,16.94-3.47,17-9.04,32.93-15.54,49.01-4.34,18.28-9.11,35.7-15.59,53.36-23.05,63.33-61.75,117.67-118.86,155.17,0,0-36.21-37.23-63.83-53.81Z"/>
</svg>